<svg xmlns="http://www.w3.org/2000/svg" xmlns:xlink="http://www.w3.org/1999/xlink" version="1.1" x="0px" y="0px" viewBox="0 0 66 82.5" enable-background="new 0 0 66 66" xml:space="preserve"><g><path d="M14.21934,50.87831c0,2.4292,1.98096,4.40527,4.41602,4.40527c1.19775,0,2.31934-0.47754,3.13818-1.30957   c1.87109,0.86963,3.85303,1.30957,5.90234,1.30957c3.67188,0,7.16651-1.44531,9.9502-4.09326   c2.99072,3.16895,6.98584,4.96582,11.11621,4.96582c2.16064,0,4.25-0.46777,6.22217-1.39209   c0.854,0.88379,2.03223,1.39209,3.29248,1.39209c2.53564,0,4.59863-2.05811,4.59863-4.58789   c0-1.06641-0.36475-2.0791-1.02246-2.88525c2.07471-3.17334,3.16699-6.91455,3.16699-10.875s-1.09179-7.70069-3.16601-10.87354   c1.00098-1.21875,1.2998-2.86719,0.74951-4.4165c-0.66064-1.85791-2.35889-3.05859-4.32666-3.05859   c-1.26074,0-2.43945,0.5083-3.29297,1.39258c-1.96143-0.91309-4.09717-1.39307-6.22607-1.39307   c-4.19092,0-8.09863,1.75488-11.11279,4.96533c-2.78418-2.64746-6.2793-4.09326-9.95117-4.09326   c-2.01611,0-4.03955,0.45166-5.8999,1.31104c-0.81885-0.83203-1.94043-1.30957-3.13867-1.30957   c-1.88867,0-3.51855,1.14844-4.15283,2.92627c-0.52637,1.47656-0.24805,3.0498,0.69727,4.22217   c-4.03516,6.19629-4.03467,14.45996,0.00098,20.65625C14.56211,48.90859,14.21934,49.86953,14.21934,50.87831z M17.28086,27.95058   c0.30908-0.42871,0.23047-1.02393-0.17871-1.3584c-0.96191-0.78564-1.01074-1.89014-0.73584-2.66162   c0.27588-0.77246,1.0166-1.59814,2.26904-1.59814c0.82373,0,1.58057,0.4126,2.02539,1.10352   c0.28223,0.43799,0.854,0.58643,1.31201,0.34033c1.76904-0.94531,3.74072-1.44531,5.70117-1.44531   c3.45557,0,6.74219,1.50439,9.25488,4.23584c0.03009,0.0329,0.07349,0.04736,0.10754,0.07568   c0.0481,0.04034,0.08557,0.08997,0.14246,0.12158c0.03027,0.01709,3.02881,1.7085,3.97021,4.41504   c0.14355,0.4126,0.53027,0.67188,0.94434,0.67188c0.10889,0,0.21973-0.01807,0.32861-0.05615   c0.52148-0.18115,0.79736-0.75098,0.61572-1.27295c-0.79926-2.29932-2.66278-3.95465-3.8454-4.82013   c2.61914-2.73572,5.9649-4.24286,9.54559-4.24286c2.07471,0,4.16016,0.5293,6.02979,1.53076   c0.45947,0.24512,1.03223,0.09717,1.31396-0.3418c0.47705-0.74414,1.29053-1.18848,2.17529-1.18848   c1.34766,0,2.14502,0.89307,2.44189,1.72852c0.29492,0.82959,0.24219,2.01465-0.78857,2.85303   c-0.41064,0.33398-0.49023,0.93018-0.18066,1.35986c2.13965,2.97412,3.27051,6.57276,3.27051,10.40723   c0,3.83398-1.13086,7.43262-3.27051,10.40674c-0.30957,0.42969-0.22998,1.02588,0.18066,1.35986   c0.60059,0.48877,0.94531,1.21533,0.94531,1.99365c0,1.42676-1.16553,2.58789-2.59863,2.58789   c-0.88477,0-1.69824-0.44434-2.17529-1.18848c-0.18994-0.2959-0.51172-0.45996-0.84229-0.45996   c-0.16016,0-0.32178,0.03809-0.47168,0.11865c-1.89551,1.01514-3.92285,1.52979-6.02539,1.52979   c-3.87988,0-7.63672-1.84766-10.30762-5.06885c-0.0625-0.07526-0.14594-0.12378-0.22565-0.177   c-0.03107-0.02246-0.05237-0.05432-0.08636-0.07349c-0.04199-0.02344-1.06299-0.61914-3.73535-3.91699   c-0.34912-0.42969-0.97852-0.49609-1.40625-0.14746c-0.4292,0.34766-0.49512,0.97754-0.14746,1.40625   c1.55017,1.91327,2.61279,3.00891,3.31616,3.64032c-2.39526,2.23615-5.36316,3.46466-8.47388,3.46466   c-1.99072,0-3.90918-0.48584-5.70313-1.44434c-0.4585-0.24561-1.02979-0.09717-1.31201,0.34033   c-0.44482,0.69141-1.20215,1.104-2.02539,1.104c-1.33203,0-2.41602-1.0791-2.41602-2.40527   c0-0.72021,0.32178-1.396,0.88281-1.85449c0.40918-0.33447,0.4873-0.92969,0.17871-1.3584   C13.17051,41.95351,13.17051,33.66249,17.28086,27.95058z"/><path d="M55.30723,44.61123c-0.09619,0.54395,0.2666,1.06299,0.81006,1.15967c0.05908,0.01025,0.11816,0.01514,0.17578,0.01514   c0.47607,0,0.89746-0.34082,0.98389-0.8252c1.25879-7.09863,0.04053-12.36963-0.01172-12.59033   c-0.12842-0.53809-0.66992-0.86865-1.2041-0.74219c-0.5376,0.12793-0.86963,0.66699-0.74219,1.2041   C55.33116,32.88271,56.49473,37.91689,55.30723,44.61123z"/><path d="M19.05772,37.4291c0.15479,0.37354,0.51953,0.61719,0.92383,0.61719h4.37744c0.55225,0,1-0.44775,1-1s-0.44775-1-1-1   h-1.96338l2.67041-2.67041c0.28613-0.28613,0.37158-0.71582,0.2168-1.08984c-0.15479-0.37354-0.51953-0.61719-0.92383-0.61719   h-4.34326c-0.55225,0-1,0.44776-1,1s0.44775,1,1,1h1.9292l-2.67041,2.67041C18.98838,36.62539,18.90293,37.05507,19.05772,37.4291z   "/><path d="M14.58848,13.67372l1.72754-0.85889l-1.20215,3.58008c-0.12891,0.3833-0.01416,0.80664,0.29102,1.07227   c0.31166,0.27158,0.74853,0.31775,1.10205,0.1416l3.91992-1.94922c0.49463-0.24609,0.6958-0.84619,0.4502-1.34082   c-0.24609-0.49512-0.84668-0.69531-1.34082-0.4502l-1.7583,0.87451l1.20215-3.58008   c0.12891-0.3833,0.01416-0.80664-0.29102-1.07227c-0.30615-0.2666-0.73926-0.32275-1.10205-0.1416l-3.88916,1.93359   c-0.49463,0.24609-0.6958,0.84619-0.4502,1.34082C13.49327,13.71767,14.09239,13.91738,14.58848,13.67372z"/><path d="M2.44541,20.35439l1.72705-0.85889l-1.20215,3.58008c-0.12842,0.38379-0.01367,0.80664,0.2915,1.07227   c0.31166,0.27158,0.74853,0.31775,1.10205,0.1416l3.91943-1.94922c0.49463-0.24609,0.6958-0.84619,0.4502-1.34082   c-0.24609-0.49463-0.84619-0.69629-1.34082-0.4502l-1.75781,0.87451l1.20215-3.58057   c0.12842-0.38379,0.01367-0.80664-0.2915-1.07227c-0.30469-0.26563-0.74072-0.3208-1.10205-0.1416l-3.88867,1.93408   c-0.49463,0.24609-0.6958,0.84619-0.4502,1.34082C1.34971,20.39833,1.94883,20.59902,2.44541,20.35439z"/></g><text x="0" y="81" fill="#000000" font-size="5px" font-weight="bold" font-family="'Helvetica Neue', Helvetica, Arial-Unicode, Arial, Sans-serif">Created by Vectors Point</text><text x="0" y="86" fill="#000000" font-size="5px" font-weight="bold" font-family="'Helvetica Neue', Helvetica, Arial-Unicode, Arial, Sans-serif">from the Noun Project</text></svg>