<svg height="512pt" viewBox="0 -64 512 512" width="512pt" xmlns="http://www.w3.org/2000/svg"><path d="m512 191.875c0-32.566406 0-86.445312-15.195312-127.472656 14.890624-25.9375 7.300781-57.332032 6.957031-58.710938-.839844-3.34375-3.84375-5.691406-7.292969-5.691406-1.375 0-32.613281.273438-58.042969 23.050781-50.769531-15.714843-137.960937-23.050781-182.425781-23.050781s-131.65625 7.335938-182.425781 23.050781c-25.429688-22.777343-56.667969-23.050781-58.042969-23.050781-3.449219 0-6.453125 2.347656-7.292969 5.691406-.34375 1.378906-7.933593 32.773438 6.957031 58.710938-15.195312 41.027344-15.195312 94.90625-15.195312 127.472656s0 86.445312 15.195312 127.472656c-14.890624 25.9375-7.300781 57.328125-6.957031 58.710938.839844 3.34375 3.84375 5.691406 7.292969 5.691406 1.375 0 32.613281-.273438 58.042969-23.050781 50.769531 15.714843 137.960937 23.050781 182.425781 23.050781s131.65625-7.335938 182.425781-23.050781c25.429688 22.777343 56.667969 23.050781 58.042969 23.050781 3.449219 0 6.453125-2.347656 7.292969-5.691406.34375-1.382813 7.933593-32.773438-6.957031-58.710938 15.195312-41.027344 15.195312-94.90625 15.195312-127.472656zm-29.796875 132.417969c10.003906 15.007812 9.273437 34.164062 8.039063 43.875-9.773438-1.335938-29.152344-5.878907-44.570313-21.292969-2.011719-2.011719-4.988281-2.714844-7.6875-1.816406-48.425781 16.140625-137.21875 23.660156-181.984375 23.660156s-133.558594-7.519531-181.984375-23.660156c-2.671875-.890625-5.695313-.175782-7.6875 1.816406-15.421875 15.417969-34.808594 19.957031-44.570313 21.292969-1.234374-9.71875-1.964843-28.867188 8.039063-43.875 1.375-2.058594 1.644531-4.660157.726563-6.960938-15.492188-38.730469-15.492188-93.019531-15.492188-125.457031s0-86.726562 15.492188-125.460938c.917968-2.296874.648437-4.898437-.726563-6.957031-10.003906-15.007812-9.273437-34.164062-8.039063-43.875 9.773438 1.335938 29.152344 5.875 44.570313 21.292969 2.011719 2.011719 4.988281 2.714844 7.6875 1.816406 48.425781-16.140625 137.21875-23.660156 181.984375-23.660156s133.558594 7.519531 181.984375 23.660156c2.699219.898438 5.675781.195313 7.6875-1.816406 15.421875-15.421875 34.808594-19.957031 44.570313-21.292969 1.234374 9.714844 1.964843 28.867188-8.039063 43.875-1.375 2.058594-1.644531 4.660157-.726563 6.957031 15.492188 38.734376 15.492188 93.023438 15.492188 125.460938s0 86.726562-15.492188 125.457031c-.917968 2.300781-.648437 4.902344.726563 6.960938zm0 0"/><path d="m441.035156 56.140625c-2.589844-.238281-5.125.890625-6.6875 2.976563-.621094.828124-15.351562 20.734374-25.113281 57.183593-1.074219 4.007813 1.304687 8.128907 5.3125 9.203125 4.007813 1.078125 8.132813-1.304687 9.203125-5.3125 4.855469-18.128906 11.0625-31.855468 15.746094-40.652344 26.039062 60 24.164062 118.820313 17.582031 158.695313-4.445313 26.910156-11.53125 48.847656-16.75 62.625-20.890625-52.128906-28.496094-102.371094-22.613281-149.578125.511718-4.117188-2.410156-7.875-6.527344-8.386719-4.117188-.515625-7.875 2.410157-8.386719 6.527344-6.835937 54.847656 3.492188 113.316406 30.703125 173.789063 2.546875 5.660156 10.796875 5.832031 13.574219.273437.675781-1.347656 16.632813-33.632813 24.738281-82.28125 7.496094-44.980469 9.292969-112.882813-24.738281-180.9375-1.160156-2.332031-3.449219-3.890625-6.042969-4.125zm0 0"/><path d="m206.734375 196.785156c-1.21875-2.683594-3.894531-4.410156-6.84375-4.410156h-56.109375c-4.152344 0-7.515625 3.367188-7.515625 7.515625s3.363281 7.515625 7.515625 7.515625h39.546875l-45.203125 51.660156c-4.167969 4.765625-.664062 12.464844 5.65625 12.464844h56.109375c4.148437 0 7.515625-3.367188 7.515625-7.515625s-3.367188-7.515625-7.515625-7.515625h-39.550781l45.207031-51.660156c1.941406-2.21875 2.40625-5.371094 1.1875-8.054688zm0 0"/><path d="m264.015625 184.359375h-25.476563l31.589844-44.226563c3.492188-4.886718-.128906-11.882812-6.113281-11.882812h-40.078125c-4.148438 0-7.515625 3.363281-7.515625 7.515625 0 4.148437 3.367187 7.515625 7.515625 7.515625h25.476562l-31.589843 44.226562c-3.492188 4.886719.128906 11.882813 6.113281 11.882813h40.078125c4.148437 0 7.515625-3.367187 7.515625-7.515625s-3.367188-7.515625-7.515625-7.515625zm0 0"/><path d="m312.109375 120.234375h-9.015625l15.027344-20.039063c3.648437-4.863281.054687-12.023437-6.011719-12.023437h-24.046875c-4.148438 0-7.515625 3.363281-7.515625 7.515625 0 4.148438 3.367187 7.515625 7.515625 7.515625h9.019531l-15.03125 20.039063c-3.648437 4.859374-.054687 12.023437 6.011719 12.023437h24.046875c4.148437 0 7.515625-3.367187 7.515625-7.515625 0-4.152344-3.367188-7.515625-7.515625-7.515625zm0 0"/></svg>